<svg id="svg" version="1.1" xmlns="http://www.w3.org/2000/svg" xmlns:xlink="http://www.w3.org/1999/xlink" width="400" height="400" viewBox="0, 0, 400,400"><g id="svgg"><path id="path0" d="M110.607 21.900 C 110.453 22.285,109.993 23.860,109.585 25.400 C 108.876 28.072,107.915 31.612,107.198 34.200 C 107.015 34.860,106.388 37.200,105.805 39.400 C 105.222 41.600,104.590 43.940,104.400 44.600 C 104.210 45.260,103.578 47.600,102.995 49.800 C 102.412 52.000,101.784 54.340,101.600 55.000 C 101.416 55.660,100.788 58.000,100.205 60.200 C 99.622 62.400,98.965 64.830,98.746 65.600 C 98.526 66.370,98.200 67.630,98.020 68.400 C 97.841 69.170,97.387 70.880,97.012 72.200 C 95.801 76.467,95.553 77.376,95.212 78.800 C 95.028 79.570,94.568 81.280,94.190 82.600 C 93.813 83.920,93.422 85.450,93.322 86.000 C 93.222 86.550,92.987 87.360,92.800 87.800 C 92.613 88.240,92.375 89.050,92.270 89.600 C 92.165 90.150,91.772 91.680,91.397 93.000 C 90.399 96.508,89.987 98.030,89.613 99.600 C 88.641 103.675,87.513 107.894,87.207 108.600 C 87.016 109.040,86.781 109.850,86.685 110.400 C 86.588 110.950,86.440 111.670,86.355 112.000 C 86.218 112.531,93.695 112.623,151.285 112.800 C 201.498 112.954,216.304 113.109,216.076 113.477 C 215.914 113.739,212.456 116.112,208.391 118.751 C 200.867 123.635,188.957 131.398,184.863 134.087 C 183.619 134.904,182.330 135.701,182.000 135.857 C 181.670 136.014,181.310 136.261,181.200 136.407 C 181.090 136.553,177.940 138.625,174.200 141.012 C 170.460 143.400,166.569 145.948,165.552 146.676 C 164.536 147.404,163.516 148.000,163.286 148.000 C 163.055 148.000,162.807 148.149,162.733 148.331 C 162.630 148.589,153.345 154.763,149.676 157.015 C 148.391 157.803,139.386 163.709,135.290 166.450 C 133.029 167.962,131.019 169.200,130.823 169.200 C 130.627 169.200,130.407 169.341,130.333 169.513 C 130.260 169.685,128.512 170.900,126.448 172.213 L 122.696 174.600 122.985 180.200 C 123.144 183.280,123.483 194.836,123.737 205.880 C 124.019 218.101,124.357 226.114,124.600 226.353 C 124.851 226.599,135.674 226.810,153.600 226.918 C 184.777 227.106,185.719 227.170,194.600 229.708 C 207.725 233.459,213.627 243.935,210.088 257.200 C 209.623 258.945,207.947 262.554,207.519 262.733 C 207.343 262.807,207.200 263.086,207.200 263.353 C 207.200 266.535,190.820 279.600,186.832 279.600 C 186.588 279.600,186.077 279.759,185.695 279.953 C 183.210 281.217,179.951 282.136,172.800 283.588 C 166.052 284.959,151.929 284.965,145.200 283.599 C 136.568 281.848,134.847 281.428,133.505 280.751 C 133.123 280.558,132.583 280.401,132.305 280.401 C 130.027 280.407,116.663 273.960,111.899 270.558 C 110.854 269.811,109.834 269.200,109.632 269.200 C 109.431 269.200,109.207 269.065,109.133 268.900 C 109.060 268.735,107.634 267.583,105.964 266.339 C 100.227 262.065,92.422 254.460,87.541 248.387 C 85.809 246.231,86.037 246.129,79.341 252.087 C 76.074 254.995,72.785 257.920,72.034 258.587 C 71.282 259.254,69.662 260.718,68.434 261.841 C 67.205 262.963,65.480 264.491,64.600 265.237 C 63.720 265.982,62.010 267.510,60.800 268.631 C 59.590 269.753,57.700 271.465,56.600 272.436 C 55.500 273.406,54.510 274.290,54.400 274.400 C 54.177 274.623,48.180 279.932,46.041 281.800 C 45.285 282.460,43.662 283.918,42.434 285.041 C 41.205 286.163,39.480 287.691,38.600 288.437 C 37.720 289.182,36.010 290.716,34.800 291.846 C 33.590 292.975,30.710 295.573,28.400 297.618 C 23.070 302.337,18.399 306.494,15.818 308.816 C 14.708 309.814,13.129 311.200,12.308 311.896 L 10.817 313.161 12.268 315.080 C 19.796 325.034,32.619 337.595,43.477 345.649 C 45.855 347.412,48.070 349.072,48.400 349.337 C 48.730 349.601,51.160 351.178,53.800 352.840 C 58.240 355.635,59.877 356.594,64.832 359.305 C 65.839 359.857,67.009 360.505,67.432 360.747 C 68.483 361.348,76.772 365.200,77.014 365.200 C 77.121 365.200,78.062 365.581,79.104 366.047 C 81.561 367.144,83.072 367.763,84.800 368.380 C 85.570 368.656,86.560 369.032,87.000 369.216 C 88.960 370.037,100.556 373.667,103.600 374.412 C 104.590 374.654,106.030 375.011,106.800 375.204 C 111.132 376.290,119.258 377.929,124.800 378.833 C 145.856 382.270,180.400 382.266,202.000 378.825 C 208.701 377.757,216.155 376.337,218.800 375.624 C 219.570 375.416,222.090 374.766,224.400 374.179 C 229.060 372.995,231.006 372.445,232.200 371.973 C 232.640 371.799,233.990 371.361,235.200 370.998 C 238.020 370.153,243.027 368.326,246.200 366.984 C 246.860 366.705,248.570 365.991,250.000 365.398 C 258.030 362.068,275.087 352.310,278.450 349.121 C 278.753 348.835,279.720 348.070,280.600 347.421 C 281.480 346.773,282.290 346.143,282.400 346.021 C 282.510 345.900,283.950 344.642,285.600 343.226 C 290.669 338.877,296.479 332.835,300.432 327.800 C 303.194 324.282,306.800 319.287,306.800 318.978 C 306.800 318.849,307.315 317.992,307.944 317.072 C 308.961 315.585,309.814 314.082,312.981 308.200 C 313.455 307.320,314.257 305.610,314.763 304.400 C 315.871 301.752,316.755 299.682,317.241 298.600 C 318.550 295.684,320.959 287.728,322.450 281.400 C 326.718 263.287,326.861 240.032,322.786 227.000 C 314.555 200.680,295.886 181.179,268.800 170.607 C 265.522 169.327,265.207 169.203,264.300 168.829 C 263.805 168.625,262.185 168.070,260.700 167.596 C 259.215 167.122,258.000 166.522,258.000 166.261 C 258.000 165.850,262.594 162.732,265.996 160.833 C 267.089 160.224,272.090 157.089,293.651 143.500 C 299.149 140.035,303.747 137.200,303.870 137.200 C 303.993 137.200,304.951 136.570,306.000 135.800 C 307.049 135.030,308.002 134.400,308.117 134.400 C 308.232 134.400,312.590 131.700,317.800 128.400 C 323.010 125.100,327.354 122.400,327.453 122.400 C 327.552 122.400,328.120 122.063,328.716 121.651 C 331.466 119.751,342.053 113.200,342.374 113.200 C 342.571 113.200,342.793 113.065,342.867 112.900 C 343.020 112.555,346.260 110.400,346.626 110.400 C 346.760 110.400,347.619 109.884,348.535 109.252 C 349.451 108.621,352.310 106.794,354.889 105.191 C 359.890 102.084,359.601 102.434,360.817 98.000 C 361.028 97.230,361.578 95.250,362.040 93.600 C 362.501 91.950,362.964 90.150,363.069 89.600 C 363.174 89.050,363.413 88.240,363.600 87.800 C 363.787 87.360,364.030 86.550,364.140 86.000 C 364.250 85.450,364.821 83.290,365.410 81.200 C 365.999 79.110,366.566 76.950,366.671 76.400 C 366.775 75.850,367.008 75.040,367.189 74.600 C 367.370 74.160,367.822 72.540,368.192 71.000 C 368.562 69.460,369.017 67.840,369.202 67.400 C 369.388 66.960,369.623 66.150,369.725 65.600 C 369.827 65.050,370.391 62.890,370.979 60.800 C 371.567 58.710,372.141 56.550,372.254 56.000 C 372.368 55.450,372.608 54.640,372.789 54.200 C 372.970 53.760,373.426 52.140,373.801 50.600 C 374.434 48.003,374.835 46.548,375.620 44.000 C 375.789 43.450,376.410 41.110,376.999 38.800 C 377.588 36.490,378.221 34.240,378.405 33.800 C 378.589 33.360,378.829 32.550,378.939 32.000 C 379.048 31.450,379.436 29.920,379.801 28.600 C 380.166 27.280,380.560 25.613,380.677 24.896 C 380.793 24.179,381.049 23.494,381.244 23.373 C 381.440 23.252,381.600 22.713,381.600 22.176 L 381.600 21.200 246.243 21.200 C 117.704 21.200,110.872 21.235,110.607 21.900 " stroke="none" fill="#fbfbfb" fill-rule="evenodd"></path><path id="path1" d="M31.900 0.292 C 30.855 0.376,30.000 0.589,30.000 0.766 C 30.000 0.944,29.069 1.199,27.931 1.334 C 26.792 1.468,25.676 1.764,25.451 1.989 C 25.225 2.215,24.716 2.400,24.320 2.400 C 23.924 2.400,23.600 2.536,23.600 2.702 C 23.600 2.869,23.015 3.253,22.300 3.556 C 19.361 4.802,18.468 5.277,17.671 6.020 C 17.210 6.449,16.728 6.800,16.600 6.800 C 16.376 6.800,15.814 7.224,14.615 8.300 C 14.308 8.575,13.940 8.800,13.797 8.800 C 13.456 8.800,8.800 13.456,8.800 13.797 C 8.800 13.940,8.575 14.308,8.300 14.615 C 7.155 15.892,6.800 16.384,6.800 16.695 C 6.800 16.876,6.440 17.283,6.000 17.600 C 5.560 17.917,5.200 18.385,5.200 18.639 C 5.200 18.894,4.930 19.326,4.600 19.600 C 4.270 19.874,4.000 20.436,4.000 20.849 C 4.000 21.262,3.865 21.601,3.700 21.603 C 3.302 21.607,2.400 23.579,2.400 24.446 C 2.400 24.824,2.208 25.197,1.974 25.275 C 1.740 25.353,1.443 26.223,1.314 27.209 C 1.185 28.194,0.882 29.128,0.640 29.285 C -0.006 29.705,0.014 370.314,0.661 370.715 C 0.914 370.872,1.250 371.855,1.406 372.900 C 1.563 373.945,1.850 374.800,2.045 374.800 C 2.240 374.800,2.400 375.160,2.400 375.600 C 2.400 376.040,2.580 376.400,2.800 376.400 C 3.020 376.400,3.200 376.760,3.200 377.200 C 3.200 377.640,3.360 378.000,3.557 378.000 C 3.753 378.000,4.035 378.484,4.183 379.076 C 4.459 380.174,5.918 382.493,6.486 382.733 C 6.658 382.807,6.800 383.039,6.800 383.250 C 6.800 383.908,9.422 386.800,10.018 386.800 C 10.228 386.800,10.400 387.132,10.400 387.538 C 10.400 388.430,11.609 389.600,12.531 389.600 C 12.899 389.600,13.200 389.752,13.200 389.939 C 13.200 390.502,14.521 391.811,15.900 392.615 C 16.615 393.031,17.200 393.514,17.200 393.686 C 17.200 393.859,17.478 394.000,17.817 394.000 C 18.156 394.000,18.831 394.372,19.317 394.827 C 19.803 395.283,20.695 395.755,21.300 395.877 C 21.905 396.000,22.400 396.257,22.400 396.450 C 22.400 396.642,22.670 396.800,23.000 396.800 C 23.330 396.800,23.600 396.980,23.600 397.200 C 23.600 397.420,24.039 397.600,24.576 397.600 C 25.113 397.600,25.656 397.767,25.783 397.972 C 25.909 398.177,27.045 398.471,28.306 398.626 C 29.568 398.781,30.728 399.109,30.885 399.354 C 31.290 399.986,368.303 399.993,368.715 399.362 C 368.872 399.120,369.810 398.813,370.800 398.678 C 372.716 398.416,374.792 397.597,374.797 397.100 C 374.799 396.935,375.340 396.800,376.000 396.800 C 376.660 396.800,377.201 396.665,377.201 396.500 C 377.202 396.335,378.012 395.867,379.001 395.460 C 379.991 395.054,380.800 394.559,380.800 394.360 C 380.800 394.162,381.070 394.000,381.400 394.000 C 381.730 394.000,382.000 393.832,382.000 393.627 C 382.000 393.422,382.364 393.138,382.808 392.997 C 383.861 392.663,392.663 383.861,392.997 382.808 C 393.138 382.364,393.388 382.000,393.552 382.000 C 393.716 382.000,394.098 381.370,394.400 380.600 C 394.702 379.830,395.088 379.200,395.257 379.200 C 395.426 379.200,395.682 378.570,395.826 377.800 C 395.971 377.030,396.249 376.400,396.445 376.400 C 396.640 376.400,396.800 376.040,396.800 375.600 C 396.800 375.160,396.980 374.800,397.200 374.800 C 397.420 374.800,397.600 374.365,397.600 373.833 C 397.600 373.302,397.783 372.806,398.006 372.731 C 398.229 372.657,398.525 371.382,398.664 369.898 C 398.802 368.414,399.070 367.200,399.258 367.200 C 399.447 367.200,399.600 292.178,399.600 199.600 C 399.600 104.706,399.449 32.000,399.252 32.000 C 399.060 32.000,398.781 30.920,398.632 29.600 C 398.482 28.280,398.189 27.200,397.980 27.200 C 397.771 27.200,397.600 26.750,397.600 26.200 C 397.600 25.650,397.420 25.200,397.200 25.200 C 396.980 25.200,396.800 24.840,396.800 24.400 C 396.800 23.960,396.620 23.600,396.400 23.600 C 396.180 23.600,396.000 23.163,396.000 22.629 C 396.000 22.094,395.775 21.419,395.500 21.129 C 395.225 20.838,394.730 20.060,394.400 19.400 C 394.070 18.740,393.575 17.962,393.300 17.671 C 393.025 17.381,392.800 16.997,392.800 16.820 C 392.800 16.642,392.080 15.755,391.200 14.848 C 390.320 13.941,389.600 13.048,389.600 12.864 C 389.600 12.508,386.587 9.600,386.218 9.600 C 386.099 9.600,385.334 8.970,384.518 8.200 C 383.701 7.430,382.867 6.800,382.664 6.800 C 382.460 6.800,382.003 6.476,381.647 6.080 C 380.976 5.332,378.408 4.000,377.640 4.000 C 377.398 4.000,377.200 3.820,377.200 3.600 C 377.200 3.380,376.840 3.200,376.400 3.200 C 375.960 3.200,375.600 3.020,375.600 2.800 C 375.600 2.580,375.165 2.400,374.633 2.400 C 374.102 2.400,373.607 2.222,373.533 2.005 C 373.460 1.789,372.500 1.491,371.400 1.344 C 370.300 1.197,369.272 0.880,369.115 0.638 C 368.846 0.225,37.007 -0.116,31.900 0.292 M381.765 20.642 C 382.437 20.900,382.279 23.785,381.549 24.580 C 381.357 24.789,381.200 25.434,381.200 26.013 C 381.200 26.593,381.073 27.193,380.918 27.348 C 380.662 27.605,379.017 33.582,378.538 36.000 C 378.429 36.550,378.189 37.360,378.005 37.800 C 377.820 38.240,377.350 39.950,376.960 41.600 C 376.571 43.250,376.105 44.771,375.926 44.980 C 375.747 45.189,375.600 45.776,375.600 46.285 C 375.600 46.794,375.437 47.523,375.237 47.905 C 375.038 48.287,374.554 50.040,374.162 51.800 C 373.770 53.560,373.303 55.171,373.124 55.380 C 372.946 55.589,372.800 56.253,372.800 56.856 C 372.800 57.459,372.640 58.052,372.444 58.173 C 372.249 58.294,371.993 58.979,371.877 59.696 C 371.685 60.876,371.049 63.349,369.947 67.200 C 369.727 67.970,369.395 69.230,369.209 70.000 C 368.529 72.813,367.124 77.821,366.797 78.600 C 366.612 79.040,366.375 79.850,366.271 80.400 C 365.919 82.258,364.356 88.194,364.007 89.000 C 363.816 89.440,363.569 90.250,363.458 90.800 C 363.241 91.870,362.888 93.192,361.801 97.000 C 361.424 98.320,360.997 100.024,360.853 100.787 C 360.591 102.170,358.300 104.309,355.640 105.655 C 355.068 105.944,350.946 108.480,346.479 111.291 C 342.013 114.101,338.270 116.400,338.162 116.400 C 338.055 116.400,337.749 116.583,337.483 116.806 C 336.484 117.645,333.950 119.200,333.582 119.200 C 333.372 119.200,333.200 119.380,333.200 119.600 C 333.200 119.820,333.013 120.000,332.784 120.000 C 332.555 120.000,329.400 121.890,325.772 124.200 C 322.144 126.510,319.017 128.400,318.821 128.400 C 318.626 128.400,318.407 128.535,318.333 128.700 C 318.172 129.064,314.374 131.519,312.300 132.600 C 311.475 133.030,310.800 133.521,310.800 133.691 C 310.800 133.861,310.622 134.000,310.404 134.000 C 310.088 134.000,301.853 139.056,298.168 141.512 C 297.745 141.793,297.085 142.129,296.700 142.258 C 296.315 142.388,295.999 142.607,295.999 142.747 C 295.998 142.886,295.008 143.534,293.799 144.186 C 292.589 144.838,291.600 145.513,291.600 145.686 C 291.600 145.859,291.426 146.000,291.212 146.000 C 290.999 146.000,286.866 148.520,282.028 151.600 C 277.190 154.680,273.122 157.200,272.988 157.200 C 272.854 157.200,271.902 157.783,270.872 158.497 C 269.842 159.210,268.526 160.065,267.946 160.397 C 261.155 164.286,257.991 166.800,259.887 166.800 C 260.508 166.800,262.726 167.499,265.100 168.442 C 265.595 168.639,266.405 168.956,266.900 169.146 C 267.395 169.337,268.250 169.685,268.800 169.919 C 269.350 170.154,270.520 170.648,271.400 171.017 C 294.998 180.918,315.174 201.000,321.416 220.800 C 321.797 222.010,322.247 223.360,322.414 223.800 C 323.779 227.379,324.598 230.876,325.694 237.800 C 326.300 241.627,326.296 261.255,325.689 266.000 C 324.549 274.901,324.001 278.072,322.749 283.000 C 322.525 283.880,322.245 285.187,322.127 285.904 C 322.008 286.621,321.751 287.306,321.556 287.427 C 321.360 287.548,321.200 287.976,321.200 288.378 C 321.200 289.105,320.209 292.678,319.585 294.200 C 319.405 294.640,318.874 296.068,318.407 297.373 C 317.939 298.679,317.116 300.709,316.578 301.885 C 316.040 303.061,315.600 304.103,315.600 304.201 C 315.600 304.488,313.461 308.981,313.220 309.200 C 313.099 309.310,312.460 310.522,311.800 311.893 C 311.140 313.265,310.465 314.390,310.300 314.393 C 310.135 314.397,310.000 314.582,310.000 314.804 C 310.000 315.218,306.095 321.638,305.623 322.000 C 305.480 322.110,304.261 323.730,302.915 325.600 C 301.569 327.470,299.867 329.667,299.134 330.482 C 298.400 331.298,296.722 333.188,295.405 334.682 C 294.089 336.177,291.244 339.020,289.084 341.000 C 283.988 345.672,284.068 345.602,282.200 346.979 C 281.320 347.627,280.510 348.263,280.400 348.392 C 280.290 348.521,279.210 349.335,278.000 350.200 C 276.790 351.065,275.710 351.875,275.600 352.000 C 275.281 352.361,267.687 357.200,267.439 357.200 C 267.316 357.200,266.267 357.797,265.108 358.528 C 263.948 359.258,261.560 360.563,259.800 361.428 C 258.040 362.292,256.510 363.100,256.400 363.222 C 256.176 363.471,252.518 365.200,252.215 365.200 C 252.109 365.200,250.982 365.672,249.711 366.248 C 246.394 367.753,245.206 368.240,243.400 368.837 C 242.520 369.129,241.620 369.478,241.400 369.614 C 241.180 369.750,239.380 370.365,237.400 370.980 C 235.420 371.595,233.440 372.240,233.000 372.413 C 231.197 373.122,227.813 374.114,224.700 374.847 C 223.875 375.041,222.525 375.368,221.700 375.574 C 215.938 377.011,213.233 377.581,212.124 377.590 C 211.422 377.595,210.736 377.780,210.600 378.000 C 210.464 378.220,209.799 378.400,209.123 378.400 C 208.446 378.400,207.242 378.568,206.446 378.773 C 204.161 379.361,197.122 380.265,187.400 381.219 C 168.364 383.086,141.185 382.297,124.000 379.378 C 121.910 379.023,119.390 378.640,118.400 378.527 C 117.410 378.415,116.429 378.160,116.220 377.961 C 116.011 377.763,115.332 377.600,114.711 377.600 C 113.512 377.600,105.546 375.788,104.200 375.209 C 103.760 375.020,102.770 374.757,102.000 374.626 C 100.506 374.370,95.529 372.940,94.200 372.384 C 93.760 372.200,91.960 371.580,90.200 371.007 C 88.440 370.433,86.640 369.810,86.200 369.622 C 85.760 369.434,84.770 369.056,84.000 368.780 C 82.265 368.160,80.757 367.542,78.283 366.436 C 77.229 365.965,75.609 365.280,74.683 364.914 C 72.178 363.923,60.998 358.198,60.400 357.600 C 60.024 357.224,57.002 355.549,56.300 355.328 C 55.915 355.206,55.600 354.948,55.600 354.753 C 55.600 354.559,55.416 354.400,55.191 354.400 C 54.706 354.400,51.458 352.331,51.267 351.900 C 51.193 351.735,50.973 351.600,50.776 351.600 C 50.472 351.600,44.617 347.577,42.800 346.119 C 42.470 345.854,41.030 344.714,39.600 343.585 C 32.780 338.202,24.092 329.988,19.142 324.243 C 18.404 323.386,17.434 322.306,16.986 321.843 C 15.048 319.836,10.400 313.807,10.400 313.299 C 10.400 312.781,12.899 310.296,15.391 308.336 C 15.987 307.866,17.044 306.919,17.738 306.230 C 18.432 305.541,20.347 303.813,21.994 302.389 C 23.641 300.965,25.361 299.440,25.817 299.000 C 26.273 298.560,27.970 297.030,29.587 295.600 C 31.205 294.170,32.930 292.640,33.420 292.200 C 33.911 291.760,34.917 290.872,35.656 290.227 C 37.018 289.038,44.432 282.368,44.800 282.000 C 45.005 281.795,50.342 277.075,52.744 274.975 C 53.483 274.329,54.485 273.440,54.971 273.000 C 55.456 272.560,57.361 270.850,59.203 269.200 C 61.045 267.550,63.571 265.257,64.817 264.104 C 66.063 262.951,67.604 261.603,68.241 261.109 C 68.879 260.615,69.940 259.663,70.600 258.994 C 71.260 258.325,72.430 257.263,73.200 256.635 C 73.970 256.006,76.083 254.144,77.895 252.497 C 79.707 250.850,81.597 249.151,82.095 248.721 C 82.593 248.291,83.577 247.416,84.283 246.776 C 85.849 245.354,86.132 245.459,88.400 248.308 C 91.685 252.434,98.226 259.107,102.600 262.794 C 103.700 263.722,105.041 264.852,105.580 265.307 C 109.243 268.398,119.578 274.661,124.200 276.592 C 124.860 276.868,126.210 277.465,127.200 277.919 C 128.797 278.651,133.159 280.079,137.200 281.193 C 138.549 281.565,141.474 282.151,147.400 283.237 C 150.897 283.878,167.371 283.924,170.200 283.300 C 171.300 283.058,173.910 282.544,176.000 282.159 C 178.090 281.774,179.971 281.311,180.180 281.130 C 180.389 280.948,180.835 280.800,181.172 280.800 C 182.157 280.800,187.170 278.859,190.200 277.304 C 194.887 274.898,195.701 274.393,198.441 272.187 C 201.254 269.922,201.487 269.705,203.494 267.474 C 206.276 264.380,209.600 258.042,209.600 255.831 C 209.600 255.352,209.792 254.768,210.026 254.534 C 210.547 254.013,210.317 246.039,209.723 244.000 C 207.501 236.376,200.559 231.289,189.443 229.139 C 183.576 228.004,180.750 227.894,153.341 227.741 C 129.070 227.605,124.406 227.490,124.011 227.013 C 123.506 226.405,122.791 203.645,122.667 184.216 L 122.600 173.832 129.800 169.116 C 133.760 166.522,137.315 164.289,137.700 164.153 C 138.085 164.018,138.400 163.768,138.400 163.599 C 138.400 163.430,138.985 162.996,139.700 162.635 C 141.315 161.819,142.538 161.077,142.800 160.753 C 142.969 160.545,153.917 153.416,155.936 152.200 C 156.301 151.980,156.690 151.703,156.800 151.583 C 156.910 151.464,160.060 149.404,163.800 147.005 C 167.540 144.607,171.431 142.049,172.448 141.322 C 173.464 140.595,174.484 140.000,174.714 140.000 C 174.945 140.000,175.193 139.860,175.267 139.689 C 175.340 139.518,178.190 137.583,181.600 135.389 C 185.010 133.195,187.860 131.265,187.933 131.100 C 188.007 130.935,188.307 130.800,188.600 130.800 C 188.893 130.800,189.193 130.665,189.267 130.500 C 189.458 130.069,192.706 128.000,193.191 128.000 C 193.416 128.000,193.600 127.859,193.600 127.686 C 193.600 127.514,194.185 127.030,194.900 126.612 C 196.579 125.630,204.109 120.744,210.109 116.743 L 214.818 113.602 150.309 113.501 L 85.800 113.400 85.862 112.000 C 85.933 110.396,86.307 108.561,86.800 107.400 C 86.987 106.960,87.225 106.150,87.329 105.600 C 87.681 103.742,89.244 97.806,89.593 97.000 C 89.784 96.560,90.025 95.750,90.129 95.200 C 90.481 93.342,92.044 87.406,92.393 86.600 C 92.584 86.160,92.829 85.350,92.939 84.800 C 93.048 84.250,93.436 82.720,93.801 81.400 C 94.166 80.080,94.560 78.413,94.677 77.696 C 94.793 76.979,95.049 76.294,95.244 76.173 C 95.440 76.052,95.600 75.511,95.600 74.971 C 95.600 74.431,95.764 73.677,95.964 73.295 C 96.164 72.913,96.718 70.980,97.196 69.000 C 97.673 67.020,98.218 64.860,98.405 64.200 C 98.593 63.540,99.172 61.342,99.692 59.315 C 100.211 57.288,100.763 55.503,100.918 55.348 C 101.073 55.193,101.200 54.644,101.200 54.128 C 101.200 53.612,101.357 52.877,101.550 52.495 C 101.742 52.113,102.208 50.450,102.585 48.800 C 103.296 45.689,103.885 43.574,104.425 42.200 C 104.598 41.760,104.826 40.950,104.932 40.400 C 105.038 39.850,105.602 37.600,106.187 35.400 C 108.687 25.988,109.284 23.725,109.604 22.441 C 109.790 21.694,110.180 20.932,110.471 20.748 C 111.067 20.370,380.783 20.265,381.765 20.642 " stroke="none" fill="#ec4c1c" fill-rule="evenodd"></path><path id="path2" d="M178.532 21.100 C 215.895 21.156,276.915 21.156,314.132 21.100 C 351.350 21.044,320.780 20.998,246.200 20.998 C 171.620 20.998,141.170 21.044,178.532 21.100 M150.377 113.100 C 196.113 113.173,215.032 113.329,215.221 113.635 C 215.393 113.912,215.576 113.840,215.732 113.434 C 215.953 112.857,210.136 112.809,150.887 112.899 L 85.800 112.998 150.377 113.100 M122.537 179.400 C 122.539 181.160,122.609 181.830,122.693 180.889 C 122.778 179.949,122.777 178.509,122.691 177.689 C 122.605 176.870,122.536 177.640,122.537 179.400 M304.200 194.000 C 305.283 195.100,306.260 196.000,306.370 196.000 C 306.480 196.000,305.683 195.100,304.600 194.000 C 303.517 192.900,302.540 192.000,302.430 192.000 C 302.320 192.000,303.117 192.900,304.200 194.000 M123.334 204.400 C 123.334 206.050,123.405 206.725,123.491 205.900 C 123.578 205.075,123.578 203.725,123.491 202.900 C 123.405 202.075,123.334 202.750,123.334 204.400 M123.737 216.200 C 123.739 217.960,123.809 218.630,123.893 217.689 C 123.978 216.749,123.977 215.309,123.891 214.489 C 123.805 213.670,123.736 214.440,123.737 216.200 M136.500 227.100 C 143.045 227.161,153.755 227.161,160.300 227.100 C 166.845 227.038,161.490 226.988,148.400 226.988 C 135.310 226.988,129.955 227.038,136.500 227.100 M177.505 227.483 C 178.002 227.579,178.722 227.575,179.105 227.475 C 179.487 227.375,179.080 227.296,178.200 227.301 C 177.320 227.305,177.007 227.387,177.505 227.483 M210.493 247.200 C 210.493 247.970,210.575 248.285,210.676 247.900 C 210.776 247.515,210.776 246.885,210.676 246.500 C 210.575 246.115,210.493 246.430,210.493 247.200 M210.493 252.800 C 210.493 253.570,210.575 253.885,210.676 253.500 C 210.776 253.115,210.776 252.485,210.676 252.100 C 210.575 251.715,210.493 252.030,210.493 252.800 M51.375 276.500 L 50.200 277.800 51.500 276.625 C 52.712 275.530,52.984 275.200,52.675 275.200 C 52.606 275.200,52.021 275.785,51.375 276.500 M152.900 284.276 C 153.285 284.376,153.915 284.376,154.300 284.276 C 154.685 284.175,154.370 284.093,153.600 284.093 C 152.830 284.093,152.515 284.175,152.900 284.276 M163.300 284.276 C 163.685 284.376,164.315 284.376,164.700 284.276 C 165.085 284.175,164.770 284.093,164.000 284.093 C 163.230 284.093,162.915 284.175,163.300 284.276 M21.983 326.900 C 22.964 327.945,23.819 328.800,23.883 328.800 C 24.184 328.800,23.866 328.441,22.100 326.783 L 20.200 325.000 21.983 326.900 M29.183 334.100 C 30.164 335.145,31.019 336.000,31.083 336.000 C 31.384 336.000,31.066 335.641,29.300 333.983 L 27.400 332.200 29.183 334.100 M295.375 334.100 L 294.200 335.400 295.500 334.225 C 296.215 333.579,296.800 332.994,296.800 332.925 C 296.800 332.616,296.470 332.888,295.375 334.100 M288.175 341.300 L 287.000 342.600 288.300 341.425 C 289.015 340.779,289.600 340.194,289.600 340.125 C 289.600 339.816,289.270 340.088,288.175 341.300 M139.100 381.082 C 139.595 381.178,140.405 381.178,140.900 381.082 C 141.395 380.987,140.990 380.909,140.000 380.909 C 139.010 380.909,138.605 380.987,139.100 381.082 M185.505 381.083 C 186.002 381.179,186.722 381.175,187.105 381.075 C 187.487 380.975,187.080 380.896,186.200 380.901 C 185.320 380.905,185.007 380.987,185.505 381.083 M144.500 381.476 C 144.885 381.576,145.515 381.576,145.900 381.476 C 146.285 381.375,145.970 381.293,145.200 381.293 C 144.430 381.293,144.115 381.375,144.500 381.476 M179.700 381.476 C 180.085 381.576,180.715 381.576,181.100 381.476 C 181.485 381.375,181.170 381.293,180.400 381.293 C 179.630 381.293,179.315 381.375,179.700 381.476 M156.500 381.899 C 159.965 381.966,165.635 381.966,169.100 381.899 C 172.565 381.833,169.730 381.778,162.800 381.778 C 155.870 381.778,153.035 381.833,156.500 381.899 " stroke="none" fill="#f4a48c" fill-rule="evenodd"></path><path id="path3" d="M110.229 21.029 C 109.883 21.374,109.621 22.049,109.646 22.529 C 109.690 23.340,109.706 23.345,109.889 22.600 C 109.998 22.160,110.269 21.575,110.492 21.300 C 111.233 20.388,381.436 20.587,381.968 21.500 C 382.330 22.121,382.377 22.126,382.388 21.543 C 382.395 21.181,382.115 20.776,381.767 20.643 C 380.103 20.004,110.870 20.387,110.229 21.029 M381.646 23.067 C 381.621 23.324,381.484 23.864,381.341 24.267 C 381.140 24.836,381.194 24.897,381.579 24.542 C 381.852 24.291,381.989 23.751,381.884 23.342 C 381.779 22.934,381.672 22.810,381.646 23.067 M109.049 24.215 C 108.912 24.573,108.815 25.166,108.834 25.533 C 108.853 25.900,109.027 25.669,109.221 25.020 C 109.598 23.758,109.465 23.133,109.049 24.215 M379.849 29.415 C 379.712 29.773,379.615 30.366,379.634 30.733 C 379.653 31.100,379.827 30.869,380.021 30.220 C 380.398 28.958,380.265 28.333,379.849 29.415 M106.046 35.667 C 106.021 36.034,105.896 36.664,105.770 37.067 C 105.552 37.762,105.563 37.763,105.997 37.087 C 106.248 36.696,106.373 36.066,106.273 35.687 C 106.111 35.068,106.088 35.066,106.046 35.667 M378.046 36.267 C 378.021 36.524,377.884 37.064,377.741 37.467 C 377.540 38.036,377.594 38.097,377.979 37.742 C 378.252 37.491,378.389 36.951,378.284 36.542 C 378.179 36.134,378.072 36.010,378.046 36.267 M377.049 39.815 C 376.912 40.173,376.815 40.766,376.834 41.133 C 376.853 41.500,377.027 41.269,377.221 40.620 C 377.598 39.358,377.465 38.733,377.049 39.815 M103.449 45.015 C 103.312 45.373,103.215 45.966,103.234 46.333 C 103.253 46.700,103.427 46.469,103.621 45.820 C 103.998 44.558,103.865 43.933,103.449 45.015 M102.250 49.650 C 101.917 51.317,102.240 51.640,102.600 50.000 C 102.752 49.309,102.793 48.659,102.691 48.558 C 102.589 48.456,102.391 48.947,102.250 49.650 M374.229 50.229 C 374.081 50.815,374.038 51.372,374.132 51.466 C 374.227 51.560,374.424 51.158,374.571 50.571 C 374.719 49.985,374.762 49.428,374.668 49.334 C 374.573 49.240,374.376 49.642,374.229 50.229 M373.459 53.100 C 373.351 53.485,373.139 54.250,372.987 54.800 C 372.805 55.455,372.845 55.662,373.102 55.400 C 373.318 55.180,373.604 54.415,373.737 53.700 C 373.993 52.333,373.793 51.902,373.459 53.100 M100.621 55.700 C 100.207 57.043,99.964 58.569,100.202 58.331 C 100.523 58.011,101.189 55.200,100.945 55.200 C 100.852 55.200,100.706 55.425,100.621 55.700 M372.446 56.667 C 372.421 56.924,372.284 57.464,372.141 57.867 C 371.940 58.436,371.994 58.497,372.379 58.142 C 372.652 57.891,372.789 57.351,372.684 56.942 C 372.579 56.534,372.472 56.410,372.446 56.667 M371.400 60.400 C 371.250 60.873,371.217 61.350,371.327 61.460 C 371.437 61.570,371.650 61.273,371.800 60.800 C 371.950 60.327,371.983 59.850,371.873 59.740 C 371.763 59.630,371.550 59.927,371.400 60.400 M370.446 64.067 C 370.421 64.434,370.296 65.064,370.170 65.467 C 369.952 66.162,369.963 66.163,370.397 65.487 C 370.648 65.096,370.773 64.466,370.673 64.087 C 370.511 63.468,370.488 63.466,370.446 64.067 M97.849 65.815 C 97.712 66.173,97.615 66.766,97.634 67.133 C 97.653 67.500,97.827 67.269,98.021 66.620 C 98.398 65.358,98.265 64.733,97.849 65.815 M96.629 70.629 C 96.481 71.215,96.438 71.772,96.532 71.866 C 96.627 71.960,96.824 71.558,96.971 70.971 C 97.119 70.385,97.162 69.828,97.068 69.734 C 96.973 69.640,96.776 70.042,96.629 70.629 M368.600 70.800 C 368.450 71.273,368.417 71.750,368.527 71.860 C 368.637 71.970,368.850 71.673,369.000 71.200 C 369.150 70.727,369.183 70.250,369.073 70.140 C 368.963 70.030,368.750 70.327,368.600 70.800 M367.849 73.415 C 367.712 73.773,367.615 74.366,367.634 74.733 C 367.653 75.100,367.827 74.869,368.021 74.220 C 368.398 72.958,368.265 72.333,367.849 73.415 M94.046 80.067 C 94.021 80.434,93.896 81.064,93.770 81.467 C 93.552 82.162,93.563 82.163,93.997 81.487 C 94.248 81.096,94.373 80.466,94.273 80.087 C 94.111 79.468,94.088 79.466,94.046 80.067 M365.049 83.815 C 364.912 84.173,364.815 84.766,364.834 85.133 C 364.853 85.500,365.027 85.269,365.221 84.620 C 365.598 83.358,365.465 82.733,365.049 83.815 M92.267 86.667 C 92.120 86.813,92.011 87.308,92.025 87.767 C 92.049 88.533,92.082 88.523,92.434 87.642 C 92.826 86.663,92.744 86.189,92.267 86.667 M364.046 87.467 C 364.021 87.724,363.884 88.264,363.741 88.667 C 363.540 89.236,363.594 89.297,363.979 88.942 C 364.252 88.691,364.389 88.151,364.284 87.742 C 364.179 87.334,364.072 87.210,364.046 87.467 M91.233 90.633 C 90.975 91.659,90.839 92.572,90.931 92.664 C 91.022 92.756,91.309 91.992,91.567 90.967 C 91.825 89.941,91.961 89.028,91.869 88.936 C 91.778 88.844,91.491 89.608,91.233 90.633 M363.000 91.200 C 362.850 91.673,362.817 92.150,362.927 92.260 C 363.037 92.370,363.250 92.073,363.400 91.600 C 363.550 91.127,363.583 90.650,363.473 90.540 C 363.363 90.430,363.150 90.727,363.000 91.200 M362.229 94.229 C 362.081 94.815,362.038 95.372,362.132 95.466 C 362.227 95.560,362.424 95.158,362.571 94.571 C 362.719 93.985,362.762 93.428,362.668 93.334 C 362.573 93.240,362.376 93.642,362.229 94.229 M89.467 97.067 C 89.320 97.213,89.211 97.708,89.225 98.167 C 89.249 98.933,89.282 98.923,89.634 98.042 C 90.026 97.063,89.944 96.589,89.467 97.067 M361.246 97.667 C 361.221 98.034,361.096 98.664,360.970 99.067 C 360.752 99.762,360.763 99.763,361.197 99.087 C 361.448 98.696,361.573 98.066,361.473 97.687 C 361.311 97.068,361.288 97.066,361.246 97.667 M88.250 101.650 C 87.917 103.317,88.240 103.640,88.600 102.000 C 88.752 101.309,88.793 100.659,88.691 100.558 C 88.589 100.456,88.391 100.947,88.250 101.650 M360.446 100.667 C 360.421 100.924,360.284 101.464,360.141 101.867 C 359.940 102.436,359.994 102.497,360.379 102.142 C 360.652 101.891,360.789 101.351,360.684 100.942 C 360.579 100.534,360.472 100.410,360.446 100.667 M357.067 104.278 C 355.833 105.091,354.891 105.824,354.974 105.907 C 355.130 106.063,359.600 103.199,359.600 102.943 C 359.600 102.654,359.266 102.830,357.067 104.278 M87.400 104.800 C 87.250 105.273,87.217 105.750,87.327 105.860 C 87.437 105.970,87.650 105.673,87.800 105.200 C 87.950 104.727,87.983 104.250,87.873 104.140 C 87.763 104.030,87.550 104.327,87.400 104.800 M86.667 107.467 C 86.520 107.613,86.411 108.108,86.425 108.567 C 86.449 109.333,86.482 109.323,86.834 108.442 C 87.226 107.463,87.144 106.989,86.667 107.467 M349.700 108.846 C 348.337 109.719,347.895 110.306,349.100 109.643 C 350.018 109.139,351.456 108.027,351.200 108.019 C 351.090 108.016,350.415 108.388,349.700 108.846 M85.772 110.968 C 85.102 113.639,78.677 113.378,150.505 113.600 C 186.087 113.710,215.200 113.665,215.200 113.500 C 215.200 113.335,186.106 113.200,150.547 113.200 L 85.895 113.200 86.109 111.600 C 86.347 109.829,86.151 109.461,85.772 110.968 M210.896 116.207 C 209.083 117.421,207.600 118.513,207.600 118.634 C 207.600 118.755,208.095 118.519,208.700 118.108 C 209.305 117.698,210.835 116.666,212.100 115.815 C 214.122 114.454,214.672 114.000,214.296 114.000 C 214.239 114.000,212.709 114.993,210.896 116.207 M204.500 120.396 C 203.785 120.832,203.200 121.275,203.200 121.381 C 203.200 121.486,203.830 121.201,204.600 120.747 C 205.370 120.293,206.000 119.849,206.000 119.760 C 206.000 119.505,205.874 119.558,204.500 120.396 M199.793 123.456 C 197.752 124.809,197.032 125.523,198.626 124.614 C 200.030 123.814,201.901 122.422,201.593 122.409 C 201.479 122.404,200.669 122.875,199.793 123.456 M322.900 125.646 C 321.537 126.519,321.095 127.106,322.300 126.443 C 323.218 125.939,324.656 124.827,324.400 124.819 C 324.290 124.816,323.615 125.188,322.900 125.646 M194.600 126.800 C 193.940 127.237,193.580 127.592,193.800 127.588 C 194.201 127.582,196.376 126.023,196.000 126.012 C 195.890 126.008,195.260 126.363,194.600 126.800 M190.912 129.134 C 189.983 129.721,189.218 130.333,189.212 130.496 C 189.205 130.659,190.100 130.239,191.200 129.562 C 193.090 128.399,193.583 127.956,192.900 128.034 C 192.735 128.053,191.840 128.548,190.912 129.134 M314.872 130.643 C 313.922 131.212,313.231 131.764,313.336 131.869 C 313.520 132.053,316.800 130.044,316.800 129.747 C 316.800 129.505,316.672 129.565,314.872 130.643 M186.100 132.446 C 184.737 133.319,184.295 133.906,185.500 133.243 C 186.418 132.739,187.856 131.627,187.600 131.619 C 187.490 131.616,186.815 131.988,186.100 132.446 M181.393 135.456 C 179.352 136.809,178.632 137.523,180.226 136.614 C 181.630 135.814,183.501 134.422,183.193 134.409 C 183.079 134.404,182.269 134.875,181.393 135.456 M299.400 140.400 C 298.740 140.837,298.380 141.192,298.600 141.188 C 299.001 141.182,301.176 139.623,300.800 139.612 C 300.690 139.608,300.060 139.963,299.400 140.400 M172.500 141.240 C 170.184 142.880,170.356 143.043,172.800 141.524 C 173.900 140.840,174.800 140.217,174.800 140.140 C 174.800 139.781,174.061 140.134,172.500 141.240 M162.100 148.046 C 160.737 148.919,160.295 149.506,161.500 148.843 C 162.418 148.339,163.856 147.227,163.600 147.219 C 163.490 147.216,162.815 147.588,162.100 148.046 M284.500 149.646 C 283.137 150.519,282.695 151.106,283.900 150.443 C 284.818 149.939,286.256 148.827,286.000 148.819 C 285.890 148.816,285.215 149.188,284.500 149.646 M157.901 150.737 C 157.296 151.101,156.801 151.547,156.801 151.727 C 156.800 151.907,157.340 151.670,158.000 151.200 C 159.777 149.934,159.715 149.642,157.901 150.737 M280.100 152.446 C 278.737 153.319,278.295 153.906,279.500 153.243 C 280.418 152.739,281.856 151.627,281.600 151.619 C 281.490 151.616,280.815 151.988,280.100 152.446 M275.700 155.246 C 274.337 156.119,273.895 156.706,275.100 156.043 C 276.018 155.539,277.456 154.427,277.200 154.419 C 277.090 154.416,276.415 154.788,275.700 155.246 M144.900 159.246 C 143.537 160.119,143.095 160.706,144.300 160.043 C 145.218 159.539,146.656 158.427,146.400 158.419 C 146.290 158.416,145.615 158.788,144.900 159.246 M265.300 161.646 C 263.937 162.519,263.495 163.106,264.700 162.443 C 265.618 161.939,267.056 160.827,266.800 160.819 C 266.690 160.816,266.015 161.188,265.300 161.646 M139.029 163.009 C 138.605 163.329,138.335 163.668,138.429 163.761 C 138.523 163.855,139.025 163.587,139.544 163.166 C 140.638 162.279,140.179 162.139,139.029 163.009 M260.900 164.446 C 259.537 165.319,259.095 165.906,260.300 165.243 C 261.218 164.739,262.656 163.627,262.400 163.619 C 262.290 163.616,261.615 163.988,260.900 164.446 M136.200 165.050 C 135.540 165.612,135.360 165.888,135.800 165.665 C 136.996 165.058,138.257 164.025,137.800 164.027 C 137.580 164.028,136.860 164.488,136.200 165.050 M126.500 171.246 C 125.137 172.119,124.695 172.706,125.900 172.043 C 126.818 171.539,128.256 170.427,128.000 170.419 C 127.890 170.416,127.215 170.788,126.500 171.246 M123.400 173.435 L 122.200 174.466 123.500 173.606 C 124.215 173.133,124.800 172.668,124.800 172.573 C 124.800 172.273,124.631 172.378,123.400 173.435 M276.033 173.351 C 276.442 173.721,279.600 175.195,279.600 175.016 C 279.600 174.789,276.581 173.200,276.149 173.200 C 275.994 173.200,275.942 173.268,276.033 173.351 M284.000 177.620 C 285.387 178.561,286.178 178.835,285.200 178.036 C 284.650 177.586,284.020 177.217,283.800 177.215 C 283.580 177.213,283.670 177.396,284.000 177.620 M287.800 179.898 C 288.627 180.735,294.177 184.506,293.663 183.881 C 293.367 183.522,292.117 182.547,290.884 181.714 C 288.160 179.874,287.244 179.335,287.800 179.898 M122.493 188.200 C 122.473 191.500,122.611 194.560,122.800 195.000 C 123.225 195.989,123.235 191.428,122.820 186.000 C 122.537 182.294,122.529 182.348,122.493 188.200 M296.200 186.156 C 297.300 187.175,298.740 188.386,299.400 188.849 C 300.888 189.891,298.112 187.347,295.800 185.549 C 294.573 184.595,294.666 184.736,296.200 186.156 M303.400 192.800 C 304.928 194.340,306.269 195.600,306.379 195.600 C 306.489 195.600,305.328 194.340,303.800 192.800 C 302.272 191.260,300.931 190.000,300.821 190.000 C 300.711 190.000,301.872 191.260,303.400 192.800 M307.974 197.900 C 308.937 199.055,309.802 200.000,309.896 200.000 C 310.168 200.000,307.704 196.982,306.926 196.362 C 306.539 196.053,307.010 196.745,307.974 197.900 M123.360 213.000 C 123.361 216.300,123.422 217.597,123.498 215.882 C 123.573 214.167,123.572 211.467,123.497 209.882 C 123.421 208.297,123.359 209.700,123.360 213.000 M317.683 212.987 C 318.385 214.410,319.025 215.508,319.106 215.428 C 319.285 215.249,316.866 210.400,316.598 210.400 C 316.493 210.400,316.982 211.564,317.683 212.987 M320.229 218.400 C 320.376 218.950,320.664 219.670,320.867 220.000 C 321.125 220.417,321.157 220.295,320.971 219.600 C 320.824 219.050,320.536 218.330,320.333 218.000 C 320.075 217.583,320.043 217.705,320.229 218.400 M123.684 222.820 C 123.567 228.132,120.572 227.614,150.780 227.506 L 177.000 227.411 150.600 227.199 C 136.080 227.081,124.162 226.944,124.114 226.893 C 124.067 226.842,123.970 225.045,123.898 222.900 L 123.767 219.000 123.684 222.820 M323.044 226.600 C 323.373 228.071,323.602 228.390,323.594 227.367 C 323.591 226.945,323.405 226.330,323.182 226.000 C 322.885 225.562,322.848 225.724,323.044 226.600 M182.000 228.000 C 182.550 228.176,183.630 228.317,184.400 228.314 L 185.800 228.308 184.200 227.977 C 182.063 227.535,180.596 227.550,182.000 228.000 M187.600 228.805 C 187.930 229.016,188.725 229.191,189.367 229.194 C 190.914 229.202,190.577 228.971,188.600 228.668 C 187.510 228.501,187.191 228.545,187.600 228.805 M193.000 230.000 C 193.440 230.189,194.070 230.344,194.400 230.344 C 194.778 230.344,194.704 230.217,194.200 230.000 C 193.760 229.811,193.130 229.656,192.800 229.656 C 192.422 229.656,192.496 229.783,193.000 230.000 M324.028 230.433 C 324.044 230.965,324.219 231.760,324.419 232.200 C 324.671 232.758,324.707 232.515,324.538 231.400 C 324.255 229.543,323.987 229.036,324.028 230.433 M200.400 232.820 C 201.787 233.761,202.578 234.035,201.600 233.236 C 201.050 232.786,200.420 232.417,200.200 232.415 C 199.980 232.413,200.070 232.596,200.400 232.820 M202.800 234.104 C 202.800 234.198,203.745 235.063,204.900 236.026 C 206.055 236.990,206.747 237.461,206.438 237.074 C 205.818 236.296,202.800 233.832,202.800 234.104 M325.050 236.000 C 325.375 238.241,325.602 238.560,325.594 236.767 C 325.591 236.015,325.408 235.130,325.188 234.800 C 324.909 234.381,324.867 234.742,325.050 236.000 M325.800 251.895 C 325.800 258.641,325.914 263.629,326.053 262.980 C 326.396 261.378,326.413 241.174,326.072 240.316 C 325.922 239.939,325.800 245.150,325.800 251.895 M209.606 243.833 C 209.609 244.255,209.795 244.870,210.018 245.200 C 210.315 245.638,210.352 245.476,210.156 244.600 C 209.827 243.129,209.598 242.810,209.606 243.833 M85.200 246.024 C 85.200 246.257,85.363 246.347,85.562 246.224 C 85.761 246.101,86.955 247.125,88.215 248.500 L 90.506 251.000 88.562 248.600 C 86.153 245.626,85.200 244.896,85.200 246.024 M83.262 247.640 C 82.526 248.309,81.998 248.931,82.089 249.022 C 82.180 249.114,82.863 248.561,83.606 247.794 C 85.266 246.081,85.072 245.994,83.262 247.640 M210.509 250.000 C 210.509 250.990,210.587 251.395,210.682 250.900 C 210.778 250.405,210.778 249.595,210.682 249.100 C 210.587 248.605,210.509 249.010,210.509 250.000 M79.973 250.705 L 78.600 252.198 79.998 250.999 C 80.767 250.340,81.472 249.755,81.565 249.700 C 81.657 249.645,81.646 249.513,81.539 249.406 C 81.433 249.299,80.728 249.884,79.973 250.705 M92.620 253.700 C 93.907 255.075,95.330 256.543,95.781 256.962 C 99.893 260.788,99.944 260.728,96.003 256.706 C 93.474 254.126,91.344 251.832,91.269 251.608 C 91.194 251.383,90.941 251.200,90.706 251.200 C 90.471 251.200,91.332 252.325,92.620 253.700 M75.600 254.518 C 74.610 255.452,73.278 256.621,72.639 257.114 C 72.000 257.608,71.558 258.091,71.656 258.189 C 71.753 258.287,73.176 257.123,74.817 255.602 C 76.457 254.082,77.710 252.834,77.600 252.828 C 77.490 252.823,76.590 253.583,75.600 254.518 M209.867 254.667 C 209.720 254.813,209.615 255.398,209.634 255.967 C 209.668 256.981,209.675 256.979,210.021 255.820 C 210.385 254.603,210.331 254.202,209.867 254.667 M208.844 258.444 C 208.598 259.151,208.466 259.800,208.552 259.885 C 208.638 259.971,208.909 259.462,209.156 258.756 C 209.402 258.049,209.534 257.400,209.448 257.315 C 209.362 257.229,209.091 257.738,208.844 258.444 M66.060 263.000 C 64.473 264.430,63.314 265.592,63.487 265.581 C 63.853 265.560,69.510 260.409,69.174 260.403 C 69.049 260.402,67.648 261.570,66.060 263.000 M100.835 261.700 C 100.928 261.755,101.633 262.340,102.402 263.000 L 103.800 264.200 102.625 262.900 C 101.979 262.185,101.274 261.600,101.058 261.600 C 100.843 261.600,100.743 261.645,100.835 261.700 M104.770 264.932 C 105.789 266.054,106.008 266.193,105.987 265.700 C 105.981 265.535,105.486 265.054,104.887 264.632 L 103.800 263.864 104.770 264.932 M60.873 267.650 C 59.923 268.546,59.214 269.348,59.298 269.431 C 59.382 269.515,60.241 268.777,61.208 267.792 C 63.401 265.557,63.187 265.466,60.873 267.650 M325.262 267.200 C 325.222 267.970,325.096 269.050,324.983 269.600 L 324.777 270.600 325.208 269.614 C 325.444 269.071,325.570 267.991,325.486 267.214 L 325.334 265.800 325.262 267.200 M203.021 267.929 L 201.843 269.400 203.321 268.022 C 204.849 266.597,205.010 266.380,204.500 266.429 C 204.335 266.445,203.670 267.120,203.021 267.929 M107.600 266.946 C 107.600 267.056,108.140 267.530,108.800 268.000 C 109.460 268.470,110.000 268.764,110.000 268.654 C 110.000 268.544,109.460 268.070,108.800 267.600 C 108.140 267.130,107.600 266.836,107.600 266.946 M57.178 271.100 L 55.800 272.600 57.300 271.222 C 58.696 269.938,58.984 269.600,58.678 269.600 C 58.612 269.600,57.937 270.275,57.178 271.100 M113.400 271.007 C 113.840 271.366,114.560 271.835,115.000 272.051 L 115.800 272.444 115.000 271.793 C 114.560 271.434,113.840 270.965,113.400 270.749 L 112.600 270.356 113.400 271.007 M324.200 274.400 C 324.046 275.310,324.004 276.138,324.107 276.240 C 324.210 276.343,324.413 275.677,324.560 274.760 C 324.707 273.843,324.748 273.015,324.653 272.920 C 324.558 272.824,324.354 273.490,324.200 274.400 M49.978 277.500 L 48.600 279.000 50.100 277.622 C 51.496 276.338,51.784 276.000,51.478 276.000 C 51.412 276.000,50.737 276.675,49.978 277.500 M191.100 276.827 C 190.275 277.263,189.600 277.708,189.600 277.818 C 189.600 277.927,190.320 277.649,191.200 277.200 C 192.080 276.751,192.800 276.297,192.800 276.192 C 192.800 275.930,192.797 275.931,191.100 276.827 M323.254 279.467 C 323.225 279.944,323.096 280.664,322.970 281.067 C 322.752 281.761,322.764 281.762,323.196 281.088 C 323.447 280.697,323.575 279.977,323.481 279.488 C 323.309 278.601,323.309 278.601,323.254 279.467 M46.268 280.646 C 45.425 281.429,44.797 282.130,44.870 282.204 C 44.944 282.278,45.762 281.632,46.687 280.769 C 47.612 279.906,48.241 279.205,48.085 279.211 C 47.928 279.217,47.111 279.862,46.268 280.646 M183.400 280.214 C 182.400 280.696,182.366 280.751,183.200 280.548 C 184.333 280.271,185.607 279.621,185.000 279.630 C 184.780 279.633,184.060 279.896,183.400 280.214 M136.000 281.200 C 136.330 281.413,136.870 281.588,137.200 281.588 C 137.733 281.588,137.733 281.545,137.200 281.200 C 136.870 280.987,136.330 280.812,136.000 280.812 C 135.467 280.812,135.467 280.855,136.000 281.200 M139.400 282.000 C 139.840 282.189,140.560 282.338,141.000 282.332 C 141.643 282.323,141.604 282.257,140.800 282.000 C 139.432 281.562,138.381 281.562,139.400 282.000 M176.800 282.000 C 175.996 282.257,175.957 282.323,176.600 282.332 C 177.040 282.338,177.760 282.189,178.200 282.000 C 179.219 281.562,178.168 281.562,176.800 282.000 M40.800 285.661 L 37.400 288.894 40.706 285.999 C 43.647 283.424,44.711 282.370,44.324 282.414 C 44.256 282.422,42.670 283.883,40.800 285.661 M142.800 282.763 C 143.350 282.933,144.880 283.179,146.200 283.309 C 147.533 283.441,148.155 283.409,147.600 283.237 C 147.050 283.067,145.520 282.821,144.200 282.691 C 142.867 282.559,142.245 282.591,142.800 282.763 M172.026 282.854 C 169.144 283.332,168.815 283.731,171.607 283.363 C 174.113 283.032,176.312 282.461,175.000 282.481 C 174.560 282.488,173.222 282.656,172.026 282.854 M154.300 284.144 C 156.809 284.335,160.791 284.335,163.300 284.144 C 167.421 283.829,167.042 283.800,158.800 283.800 C 150.558 283.800,150.179 283.829,154.300 284.144 M320.649 289.415 C 320.512 289.773,320.415 290.366,320.434 290.733 C 320.453 291.100,320.627 290.869,320.821 290.220 C 321.198 288.958,321.065 288.333,320.649 289.415 M34.500 291.222 C 33.785 291.892,33.200 292.557,33.200 292.699 C 33.200 292.841,33.830 292.346,34.600 291.600 C 35.881 290.359,36.175 289.997,35.900 290.002 C 35.845 290.003,35.215 290.552,34.500 291.222 M31.193 294.103 C 30.420 294.817,28.939 296.165,27.902 297.100 C 26.866 298.035,26.154 298.800,26.321 298.800 C 26.660 298.800,33.115 292.844,32.800 292.821 C 32.690 292.813,31.967 293.390,31.193 294.103 M317.644 298.444 C 317.398 299.151,317.266 299.800,317.352 299.885 C 317.438 299.971,317.709 299.462,317.956 298.756 C 318.202 298.049,318.334 297.400,318.248 297.315 C 318.162 297.229,317.891 297.738,317.644 298.444 M20.268 303.846 C 19.425 304.629,18.797 305.330,18.870 305.404 C 18.944 305.478,19.762 304.832,20.687 303.969 C 21.612 303.106,22.241 302.405,22.085 302.411 C 21.928 302.417,21.111 303.062,20.268 303.846 M314.865 305.017 C 314.195 306.488,314.323 306.802,315.047 305.465 C 315.386 304.840,315.588 304.254,315.496 304.163 C 315.405 304.071,315.121 304.456,314.865 305.017 M13.672 309.800 C 12.284 311.010,11.295 311.992,11.474 311.982 C 11.830 311.962,16.728 307.602,16.397 307.601 C 16.285 307.600,15.059 308.590,13.672 309.800 M311.600 311.600 C 311.151 312.480,310.874 313.200,310.984 313.200 C 311.094 313.200,311.551 312.480,312.000 311.600 C 312.449 310.720,312.726 310.000,312.616 310.000 C 312.506 310.000,312.049 310.720,311.600 311.600 M12.071 315.948 C 12.582 316.580,13.720 318.012,14.600 319.131 C 15.480 320.250,16.340 321.174,16.512 321.183 C 16.683 321.192,15.632 319.760,14.176 318.000 C 12.720 316.240,11.441 314.800,11.335 314.800 C 11.229 314.800,11.560 315.317,12.071 315.948 M308.553 316.900 C 307.176 319.236,307.086 319.435,307.787 318.600 C 308.600 317.632,309.300 316.400,309.038 316.400 C 308.933 316.400,308.715 316.625,308.553 316.900 M306.214 320.635 C 305.841 321.204,305.605 321.738,305.689 321.822 C 305.773 321.907,306.158 321.441,306.544 320.788 C 307.406 319.328,307.148 319.209,306.214 320.635 M18.281 323.387 C 18.677 323.931,19.166 324.381,19.370 324.387 C 19.573 324.394,19.317 323.950,18.800 323.400 C 17.601 322.123,17.357 322.118,18.281 323.387 M20.000 325.101 C 20.000 325.228,21.080 326.457,22.400 327.831 C 23.720 329.206,24.800 330.227,24.800 330.099 C 24.800 329.972,23.720 328.743,22.400 327.369 C 21.080 325.994,20.000 324.973,20.000 325.101 M300.603 328.222 C 299.782 329.224,299.176 330.103,299.255 330.176 C 299.335 330.249,300.088 329.429,300.929 328.354 C 302.859 325.888,302.602 325.783,300.603 328.222 M29.177 334.490 C 30.374 335.750,31.439 336.695,31.543 336.590 C 31.648 336.486,31.655 336.355,31.558 336.300 C 31.462 336.245,30.397 335.300,29.192 334.200 L 27.000 332.200 29.177 334.490 M291.993 337.887 C 289.467 340.465,288.660 341.410,290.200 339.987 C 291.740 338.564,293.882 336.455,294.960 335.300 C 298.467 331.544,296.701 333.083,291.993 337.887 M32.013 337.100 C 32.019 337.265,32.514 337.746,33.113 338.168 L 34.200 338.936 33.230 337.868 C 32.211 336.746,31.992 336.607,32.013 337.100 M35.218 339.908 C 35.236 340.180,40.312 344.307,42.170 345.559 C 42.914 346.061,42.938 346.055,42.400 345.505 C 41.260 344.340,35.200 339.617,35.218 339.908 M285.578 343.900 L 284.200 345.400 285.700 344.022 C 286.525 343.263,287.200 342.588,287.200 342.522 C 287.200 342.216,286.862 342.504,285.578 343.900 M43.221 346.321 C 43.246 346.662,50.444 351.689,50.634 351.499 C 50.709 351.425,49.067 350.166,46.985 348.703 C 44.903 347.240,43.209 346.168,43.221 346.321 M278.591 349.455 L 277.000 350.861 278.600 349.747 C 279.480 349.134,280.275 348.580,280.367 348.516 C 280.458 348.452,280.454 348.321,280.357 348.224 C 280.260 348.127,279.465 348.681,278.591 349.455 M51.213 351.917 C 51.228 352.268,54.843 354.490,55.055 354.279 C 55.139 354.194,54.307 353.564,53.204 352.879 C 52.102 352.194,51.206 351.761,51.213 351.917 M274.200 352.606 L 273.000 353.609 274.297 352.904 C 275.011 352.517,275.596 352.065,275.597 351.900 C 275.601 351.463,275.519 351.504,274.200 352.606 M270.100 355.246 C 268.737 356.119,268.295 356.706,269.500 356.043 C 270.418 355.539,271.856 354.427,271.600 354.419 C 271.490 354.416,270.815 354.788,270.100 355.246 M66.800 360.997 C 66.800 361.268,70.049 362.884,70.230 362.703 C 70.314 362.619,69.576 362.159,68.591 361.681 C 67.606 361.202,66.800 360.894,66.800 360.997 M72.400 363.789 C 72.400 364.106,75.300 365.233,75.528 365.005 C 75.641 364.892,75.635 364.800,75.516 364.800 C 75.396 364.800,74.646 364.528,73.849 364.195 C 73.052 363.862,72.400 363.679,72.400 363.789 M253.101 364.365 C 252.276 364.750,251.466 365.201,251.301 365.368 C 250.901 365.770,254.491 364.377,254.980 363.940 C 255.580 363.403,254.766 363.587,253.101 364.365 M80.800 367.431 C 80.800 367.701,82.878 368.456,83.076 368.257 C 83.167 368.167,82.692 367.901,82.020 367.667 C 81.349 367.433,80.800 367.327,80.800 367.431 M245.400 367.814 C 244.395 368.298,244.363 368.353,245.200 368.151 C 245.750 368.019,246.371 367.750,246.580 367.555 C 247.098 367.071,246.814 367.133,245.400 367.814 M237.800 370.614 C 236.800 371.096,236.766 371.151,237.600 370.948 C 238.733 370.671,240.007 370.021,239.400 370.030 C 239.180 370.033,238.460 370.296,237.800 370.614 M94.200 372.400 C 94.336 372.620,94.842 372.787,95.324 372.772 C 96.169 372.745,96.171 372.731,95.400 372.400 C 94.299 371.927,93.908 371.927,94.200 372.400 M96.800 373.141 C 97.130 373.334,97.940 373.609,98.600 373.752 C 99.368 373.918,99.584 373.884,99.200 373.659 C 98.870 373.466,98.060 373.191,97.400 373.048 C 96.632 372.882,96.416 372.916,96.800 373.141 M229.600 373.200 C 228.776 373.464,228.741 373.526,229.400 373.554 C 229.840 373.573,230.470 373.413,230.800 373.200 C 231.501 372.747,231.014 372.747,229.600 373.200 M100.033 374.144 C 100.125 374.223,100.740 374.408,101.400 374.556 C 102.276 374.752,102.438 374.715,102.000 374.418 C 101.460 374.053,99.632 373.798,100.033 374.144 M225.200 374.400 C 224.405 374.914,225.404 374.914,226.600 374.400 L 227.400 374.056 226.600 374.034 C 226.160 374.022,225.530 374.187,225.200 374.400 M222.000 375.200 C 221.176 375.464,221.141 375.526,221.800 375.554 C 222.240 375.573,222.870 375.413,223.200 375.200 C 223.901 374.747,223.414 374.747,222.000 375.200 M107.000 376.000 C 107.440 376.189,108.160 376.338,108.600 376.332 C 109.243 376.323,109.204 376.257,108.400 376.000 C 107.032 375.562,105.981 375.562,107.000 376.000 M218.224 376.050 C 217.357 376.253,216.547 376.521,216.424 376.645 C 216.101 376.971,219.286 376.362,220.000 375.961 C 220.739 375.546,220.272 375.570,218.224 376.050 M112.000 377.200 C 112.550 377.376,113.360 377.520,113.800 377.520 C 114.433 377.520,114.392 377.454,113.600 377.200 C 113.050 377.024,112.240 376.880,111.800 376.880 C 111.167 376.880,111.208 376.946,112.000 377.200 M213.400 377.219 C 212.842 377.471,213.085 377.507,214.200 377.338 C 215.080 377.204,215.875 377.028,215.967 376.947 C 216.310 376.644,214.168 376.871,213.400 377.219 M116.190 377.984 C 116.332 378.213,116.917 378.400,117.490 378.400 C 118.744 378.400,118.599 378.208,117.066 377.840 C 116.323 377.662,116.021 377.711,116.190 377.984 M209.200 378.000 L 208.200 378.320 209.276 378.360 C 209.868 378.382,210.464 378.220,210.600 378.000 C 210.881 377.545,210.620 377.545,209.200 378.000 M120.421 378.821 C 120.955 379.160,123.942 379.381,123.567 379.055 C 123.475 378.975,122.599 378.808,121.621 378.682 C 120.470 378.535,120.046 378.584,120.421 378.821 M204.600 378.800 L 203.000 379.086 204.400 379.115 C 205.170 379.131,206.160 378.989,206.600 378.800 C 207.543 378.395,206.862 378.395,204.600 378.800 M126.433 379.750 C 126.525 379.832,127.680 380.000,129.000 380.123 C 130.578 380.270,130.989 380.235,130.200 380.020 C 128.966 379.685,126.136 379.482,126.433 379.750 M196.200 380.020 C 195.411 380.235,195.822 380.270,197.400 380.123 C 198.720 380.000,199.875 379.832,199.967 379.750 C 200.264 379.482,197.434 379.685,196.200 380.020 M134.800 380.800 C 135.350 380.976,136.430 381.117,137.200 381.114 L 138.600 381.108 137.000 380.777 C 134.863 380.335,133.396 380.350,134.800 380.800 M189.000 380.800 L 187.400 381.086 188.800 381.096 C 189.570 381.101,190.740 380.968,191.400 380.800 C 193.028 380.386,191.313 380.386,189.000 380.800 M143.000 381.631 C 144.581 381.950,150.689 382.135,150.367 381.855 C 150.275 381.775,148.220 381.620,145.800 381.510 C 143.056 381.385,142.002 381.430,143.000 381.631 M178.400 381.600 L 175.000 381.851 178.200 381.902 C 179.960 381.931,182.120 381.805,183.000 381.623 L 184.600 381.292 183.200 381.321 C 182.430 381.336,180.270 381.462,178.400 381.600 M158.721 382.299 C 160.988 382.370,164.588 382.370,166.721 382.298 C 168.855 382.226,167.000 382.168,162.600 382.168 C 158.200 382.168,156.455 382.227,158.721 382.299 " stroke="none" fill="#ec7c54" fill-rule="evenodd"></path><path id="path4" d="M107.646 31.267 C 107.621 31.634,107.496 32.264,107.370 32.667 C 107.152 33.362,107.163 33.363,107.597 32.687 C 107.848 32.296,107.973 31.666,107.873 31.287 C 107.711 30.668,107.688 30.666,107.646 31.267 M370.846 60.867 C 370.821 61.234,370.696 61.864,370.570 62.267 C 370.352 62.962,370.363 62.963,370.797 62.287 C 371.048 61.896,371.173 61.266,371.073 60.887 C 370.911 60.268,370.888 60.266,370.846 60.867 M99.246 62.467 C 99.221 62.834,99.096 63.464,98.970 63.867 C 98.752 64.562,98.763 64.563,99.197 63.887 C 99.448 63.496,99.573 62.866,99.473 62.487 C 99.311 61.868,99.288 61.866,99.246 62.467 M97.429 69.429 C 97.281 70.015,97.238 70.572,97.332 70.666 C 97.427 70.760,97.624 70.358,97.771 69.771 C 97.919 69.185,97.962 68.628,97.868 68.534 C 97.773 68.440,97.576 68.842,97.429 69.429 M93.829 82.629 C 93.681 83.215,93.638 83.772,93.732 83.866 C 93.827 83.960,94.024 83.558,94.171 82.971 C 94.319 82.385,94.362 81.828,94.268 81.734 C 94.173 81.640,93.976 82.042,93.829 82.629 M88.249 103.415 C 88.112 103.773,88.015 104.366,88.034 104.733 C 88.053 105.100,88.227 104.869,88.421 104.220 C 88.798 102.958,88.665 102.333,88.249 103.415 M349.700 108.396 C 348.985 108.832,348.400 109.275,348.400 109.381 C 348.400 109.486,349.030 109.201,349.800 108.747 C 350.570 108.293,351.200 107.849,351.200 107.760 C 351.200 107.505,351.074 107.558,349.700 108.396 M215.200 113.872 C 214.313 114.810,214.297 114.878,215.053 114.476 C 215.522 114.226,216.011 113.747,216.140 113.411 C 216.454 112.594,216.368 112.636,215.200 113.872 M211.300 116.446 C 209.937 117.319,209.495 117.906,210.700 117.243 C 211.618 116.739,213.056 115.627,212.800 115.619 C 212.690 115.616,212.015 115.988,211.300 116.446 M204.500 120.846 C 203.137 121.719,202.695 122.306,203.900 121.643 C 204.818 121.139,206.256 120.027,206.000 120.019 C 205.890 120.016,205.215 120.388,204.500 120.846 M318.900 127.646 C 317.537 128.519,317.095 129.106,318.300 128.443 C 319.218 127.939,320.656 126.827,320.400 126.819 C 320.290 126.816,319.615 127.188,318.900 127.646 M192.900 128.446 C 191.537 129.319,191.095 129.906,192.300 129.243 C 193.218 128.739,194.656 127.627,194.400 127.619 C 194.290 127.616,193.615 127.988,192.900 128.446 M311.300 132.446 C 309.937 133.319,309.495 133.906,310.700 133.243 C 311.618 132.739,313.056 131.627,312.800 131.619 C 312.690 131.616,312.015 131.988,311.300 132.446 M179.600 137.236 C 178.936 137.779,178.869 137.915,179.400 137.640 C 180.705 136.966,181.428 136.412,181.000 136.415 C 180.780 136.417,180.150 136.786,179.600 137.236 M174.500 140.446 C 173.137 141.319,172.695 141.906,173.900 141.243 C 174.818 140.739,176.256 139.627,176.000 139.619 C 175.890 139.616,175.215 139.988,174.500 140.446 M161.200 149.236 C 160.536 149.779,160.469 149.915,161.000 149.640 C 162.305 148.966,163.028 148.412,162.600 148.415 C 162.380 148.417,161.750 148.786,161.200 149.236 M280.500 151.646 C 279.137 152.519,278.695 153.106,279.900 152.443 C 280.818 151.939,282.256 150.827,282.000 150.819 C 281.890 150.816,281.215 151.188,280.500 151.646 M132.607 167.822 C 131.511 168.580,130.759 169.200,130.935 169.200 C 131.318 169.200,134.800 166.840,134.800 166.581 C 134.800 166.311,134.759 166.334,132.607 167.822 M125.793 172.256 C 123.752 173.609,123.032 174.323,124.626 173.414 C 126.030 172.614,127.901 171.222,127.593 171.209 C 127.479 171.204,126.669 171.675,125.793 172.256 M122.940 185.200 C 122.940 187.070,123.009 187.835,123.093 186.900 C 123.177 185.965,123.177 184.435,123.093 183.500 C 123.009 182.565,122.940 183.330,122.940 185.200 M295.162 185.726 C 295.782 186.504,298.800 188.968,298.800 188.696 C 298.800 188.602,297.855 187.737,296.700 186.774 C 295.545 185.810,294.853 185.339,295.162 185.726 M123.363 195.200 C 123.363 198.830,123.423 200.315,123.498 198.500 C 123.572 196.685,123.572 193.715,123.498 191.900 C 123.423 190.085,123.363 191.570,123.363 195.200 M306.751 197.138 C 307.421 197.985,308.287 198.930,308.674 199.238 C 309.061 199.547,308.590 198.855,307.626 197.700 C 305.606 195.278,304.938 194.849,306.751 197.138 M123.740 210.000 C 123.740 211.870,123.809 212.635,123.893 211.700 C 123.977 210.765,123.977 209.235,123.893 208.300 C 123.809 207.365,123.740 208.130,123.740 210.000 M173.300 227.091 C 174.125 227.178,175.475 227.178,176.300 227.091 C 177.125 227.005,176.450 226.934,174.800 226.934 C 173.150 226.934,172.475 227.005,173.300 227.091 M180.505 227.487 C 181.114 227.579,182.014 227.577,182.505 227.482 C 182.997 227.387,182.500 227.311,181.400 227.314 C 180.300 227.317,179.897 227.395,180.505 227.487 M186.833 228.147 C 186.925 228.228,187.720 228.404,188.600 228.538 C 189.715 228.707,189.958 228.671,189.400 228.419 C 188.632 228.071,186.490 227.844,186.833 228.147 M199.600 231.779 C 199.600 231.889,200.140 232.259,200.800 232.600 C 201.460 232.941,202.000 233.131,202.000 233.021 C 202.000 232.911,201.460 232.541,200.800 232.200 C 200.140 231.859,199.600 231.669,199.600 231.779 M205.400 236.000 C 206.259 236.880,207.052 237.600,207.162 237.600 C 207.272 237.600,206.659 236.880,205.800 236.000 C 204.941 235.120,204.148 234.400,204.038 234.400 C 203.928 234.400,204.541 235.120,205.400 236.000 M325.283 240.800 C 325.270 241.570,325.403 243.010,325.580 244.000 C 326.012 246.431,326.046 244.147,325.618 241.400 C 325.364 239.765,325.303 239.655,325.283 240.800 M84.749 247.064 C 84.249 247.670,84.277 247.681,85.068 247.188 C 85.802 246.731,86.048 246.737,86.668 247.224 C 87.339 247.752,87.354 247.741,86.851 247.100 C 86.162 246.221,85.455 246.209,84.749 247.064 M81.978 249.500 L 80.600 251.000 82.100 249.622 C 83.496 248.338,83.784 248.000,83.478 248.000 C 83.412 248.000,82.737 248.675,81.978 249.500 M91.200 252.600 C 91.946 253.370,92.647 254.000,92.757 254.000 C 92.867 254.000,92.346 253.370,91.600 252.600 C 90.854 251.830,90.153 251.200,90.043 251.200 C 89.933 251.200,90.454 251.830,91.200 252.600 M74.778 255.900 L 73.400 257.400 74.900 256.022 C 76.296 254.738,76.584 254.400,76.278 254.400 C 76.212 254.400,75.537 255.075,74.778 255.900 M93.200 254.648 C 93.200 254.858,94.145 255.923,95.300 257.015 L 97.400 259.000 95.400 256.808 C 94.300 255.603,93.355 254.538,93.300 254.442 C 93.245 254.345,93.200 254.438,93.200 254.648 M325.400 260.000 C 325.241 262.005,325.198 263.731,325.303 263.836 C 325.408 263.942,325.623 262.386,325.780 260.380 C 325.937 258.374,325.981 256.647,325.877 256.544 C 325.773 256.440,325.559 257.995,325.400 260.000 M71.375 258.900 L 70.200 260.200 71.598 259.000 C 72.367 258.340,73.072 257.755,73.165 257.700 C 73.257 257.645,73.157 257.600,72.942 257.600 C 72.726 257.600,72.021 258.185,71.375 258.900 M66.981 262.900 L 65.400 264.600 67.100 263.019 C 68.681 261.548,68.984 261.200,68.681 261.200 C 68.616 261.200,67.851 261.965,66.981 262.900 M103.269 264.276 C 105.513 266.089,105.917 266.275,104.218 264.712 C 103.328 263.894,102.451 263.219,102.269 263.212 C 102.087 263.205,102.537 263.684,103.269 264.276 M59.178 269.900 L 57.800 271.400 59.300 270.022 C 60.696 268.738,60.984 268.400,60.678 268.400 C 60.612 268.400,59.937 269.075,59.178 269.900 M324.501 270.200 C 324.505 271.080,324.587 271.393,324.683 270.895 C 324.779 270.398,324.775 269.678,324.675 269.295 C 324.575 268.913,324.496 269.320,324.501 270.200 M55.978 272.700 L 54.600 274.200 56.100 272.822 C 57.496 271.538,57.784 271.200,57.478 271.200 C 57.412 271.200,56.737 271.875,55.978 272.700 M52.181 276.100 L 50.600 277.800 52.394 276.200 C 53.380 275.320,54.265 274.555,54.361 274.500 C 54.456 274.445,54.360 274.400,54.148 274.400 C 53.936 274.400,53.051 275.165,52.181 276.100 M175.400 282.800 C 174.381 283.238,175.432 283.238,176.800 282.800 C 177.604 282.543,177.643 282.477,177.000 282.468 C 176.560 282.462,175.840 282.611,175.400 282.800 M321.849 283.415 C 321.712 283.773,321.615 284.366,321.634 284.733 C 321.653 285.100,321.827 284.869,322.021 284.220 C 322.398 282.958,322.265 282.333,321.849 283.415 M145.400 283.590 C 146.164 283.928,148.714 284.157,148.367 283.856 C 148.275 283.776,147.390 283.604,146.400 283.473 C 145.198 283.314,144.866 283.353,145.400 283.590 M170.800 283.600 C 169.433 283.888,169.428 283.895,170.600 283.919 C 171.260 283.933,172.160 283.789,172.600 283.600 C 173.562 283.187,172.764 283.187,170.800 283.600 M40.981 286.100 L 39.400 287.800 41.100 286.219 C 42.681 284.748,42.984 284.400,42.681 284.400 C 42.616 284.400,41.851 285.165,40.981 286.100 M156.915 284.696 C 158.188 284.776,160.168 284.775,161.315 284.694 C 162.462 284.614,161.420 284.549,159.000 284.550 C 156.580 284.551,155.642 284.616,156.915 284.696 M33.178 293.100 L 31.800 294.600 33.300 293.222 C 34.696 291.938,34.984 291.600,34.678 291.600 C 34.612 291.600,33.937 292.275,33.178 293.100 M28.000 297.661 L 24.600 300.894 27.906 297.999 C 30.847 295.424,31.911 294.370,31.524 294.414 C 31.456 294.422,29.870 295.883,28.000 297.661 M18.575 306.100 L 17.400 307.400 18.798 306.200 C 19.567 305.540,20.272 304.955,20.365 304.900 C 20.457 304.845,20.357 304.800,20.142 304.800 C 19.926 304.800,19.221 305.385,18.575 306.100 M14.981 309.300 L 13.400 311.000 15.100 309.419 C 16.681 307.948,16.984 307.600,16.681 307.600 C 16.616 307.600,15.851 308.365,14.981 309.300 M303.600 323.600 C 303.130 324.260,302.836 324.800,302.946 324.800 C 303.056 324.800,303.530 324.260,304.000 323.600 C 304.470 322.940,304.764 322.400,304.654 322.400 C 304.544 322.400,304.070 322.940,303.600 323.600 M19.600 324.200 C 20.346 324.970,21.047 325.600,21.157 325.600 C 21.267 325.600,20.746 324.970,20.000 324.200 C 19.254 323.430,18.553 322.800,18.443 322.800 C 18.333 322.800,18.854 323.430,19.600 324.200 M300.975 327.068 C 300.359 327.876,300.059 328.411,300.309 328.256 C 300.821 327.940,302.553 325.600,302.275 325.600 C 302.176 325.600,301.591 326.261,300.975 327.068 M25.583 330.500 C 27.241 332.266,27.600 332.584,27.600 332.283 C 27.600 332.219,26.745 331.364,25.700 330.383 L 23.800 328.600 25.583 330.500 M296.020 332.979 L 294.240 335.000 296.201 333.114 C 297.279 332.077,298.080 331.167,297.981 331.093 C 297.881 331.019,296.999 331.867,296.020 332.979 M32.000 336.600 C 32.746 337.370,33.447 338.000,33.557 338.000 C 33.667 338.000,33.146 337.370,32.400 336.600 C 31.654 335.830,30.953 335.200,30.843 335.200 C 30.733 335.200,31.254 335.830,32.000 336.600 M291.787 337.700 L 289.400 340.200 291.900 337.813 C 293.275 336.499,294.400 335.374,294.400 335.313 C 294.400 335.017,294.005 335.378,291.787 337.700 M35.127 339.400 C 35.781 339.950,36.438 340.400,36.588 340.400 C 36.739 340.400,36.327 339.950,35.673 339.400 C 35.019 338.850,34.362 338.400,34.212 338.400 C 34.061 338.400,34.473 338.850,35.127 339.400 M286.778 342.300 L 285.400 343.800 286.900 342.422 C 288.296 341.138,288.584 340.800,288.278 340.800 C 288.212 340.800,287.537 341.475,286.778 342.300 M283.694 344.812 C 282.975 345.465,282.537 346.000,282.719 346.000 C 282.901 346.000,283.568 345.460,284.200 344.800 C 285.670 343.265,285.386 343.272,283.694 344.812 M270.500 354.446 C 269.137 355.319,268.695 355.906,269.900 355.243 C 270.818 354.739,272.256 353.627,272.000 353.619 C 271.890 353.616,271.215 353.988,270.500 354.446 M103.233 374.544 C 103.325 374.623,103.940 374.808,104.600 374.956 C 105.476 375.152,105.638 375.115,105.200 374.818 C 104.660 374.453,102.832 374.198,103.233 374.544 M110.600 376.400 C 111.040 376.589,111.760 376.738,112.200 376.732 C 112.843 376.723,112.804 376.657,112.000 376.400 C 110.632 375.962,109.581 375.962,110.600 376.400 M119.633 378.147 C 119.725 378.228,120.520 378.404,121.400 378.538 C 122.515 378.707,122.758 378.671,122.200 378.419 C 121.432 378.071,119.290 377.844,119.633 378.147 M204.600 378.419 C 204.042 378.671,204.285 378.707,205.400 378.538 C 206.280 378.404,207.075 378.228,207.167 378.147 C 207.510 377.844,205.368 378.071,204.600 378.419 M124.433 378.947 C 124.525 379.028,125.320 379.204,126.200 379.338 C 127.315 379.507,127.558 379.471,127.000 379.219 C 126.232 378.871,124.090 378.644,124.433 378.947 M133.500 380.282 C 133.995 380.378,134.805 380.378,135.300 380.282 C 135.795 380.187,135.390 380.109,134.400 380.109 C 133.410 380.109,133.005 380.187,133.500 380.282 M190.905 380.287 C 191.514 380.379,192.414 380.377,192.905 380.282 C 193.397 380.187,192.900 380.111,191.800 380.114 C 190.700 380.117,190.297 380.195,190.905 380.287 M187.300 380.676 C 187.685 380.776,188.315 380.776,188.700 380.676 C 189.085 380.575,188.770 380.493,188.000 380.493 C 187.230 380.493,186.915 380.575,187.300 380.676 M141.633 380.950 C 141.725 381.032,143.690 381.196,146.000 381.313 C 148.944 381.462,149.542 381.430,148.000 381.203 C 145.699 380.864,141.346 380.691,141.633 380.950 M177.600 381.209 C 176.610 381.369,177.780 381.407,180.200 381.295 C 182.620 381.182,184.675 381.025,184.767 380.945 C 185.049 380.699,179.506 380.903,177.600 381.209 " stroke="none" fill="#f4b49c" fill-rule="evenodd"></path></g></svg>